<svg version="1.1" id="Layer_1" xmlns="http://www.w3.org/2000/svg" xmlns:xlink="http://www.w3.org/1999/xlink" x="0px" y="0px"
	 width="100%" viewBox="0 0 365 347" enable-background="new 0 0 365 347" xml:space="preserve">
<path fill="#FFFFFF" opacity="1.000000" stroke="none" 
	d="
M218.000000,348.000000 
	C145.333344,348.000000 73.166695,348.000000 1.000029,348.000000 
	C1.000019,232.333374 1.000019,116.666733 1.000010,1.000076 
	C122.666618,1.000050 244.333237,1.000050 365.999878,1.000025 
	C365.999939,116.666595 365.999939,232.333191 365.999969,347.999878 
	C316.833344,348.000000 267.666656,348.000000 218.000000,348.000000 
M258.377472,159.870758 
	C263.706909,152.472885 269.594666,145.404282 274.206665,137.583344 
	C278.700806,129.962311 281.258820,121.401306 280.556976,112.278267 
	C279.042969,92.599220 269.588440,77.207771 254.249222,65.419205 
	C232.419205,48.642281 207.319107,42.828926 180.138474,43.939766 
	C138.518387,45.640728 103.215027,73.051048 92.164841,113.216827 
	C83.082909,146.228256 85.339928,179.125061 94.554764,211.752304 
	C95.861481,216.379028 97.487823,220.969330 99.488548,225.337234 
	C110.039215,248.371094 124.232399,267.307953 151.976974,270.448029 
	C153.023590,283.769989 159.849182,292.986420 171.379333,298.893616 
	C192.656204,309.794312 226.938858,305.849518 245.116470,290.460266 
	C261.845490,276.297424 263.739441,255.015533 249.776749,238.199860 
	C249.274261,237.594681 248.864822,236.912216 248.175919,235.928696 
	C260.164612,227.544769 268.851654,217.071365 269.790558,202.112228 
	C270.755798,186.733322 263.185486,175.441895 251.020477,166.833572 
	C253.519516,164.478043 255.697754,162.424881 258.377472,159.870758 
z"/>
<path fill="#8758EE" opacity="1.000000" stroke="none" 
	d="
M258.126740,160.121246 
	C255.697754,162.424881 253.519516,164.478043 251.020477,166.833572 
	C263.185486,175.441895 270.755798,186.733322 269.790558,202.112228 
	C268.851654,217.071365 260.164612,227.544769 248.175919,235.928696 
	C248.864822,236.912216 249.274261,237.594681 249.776749,238.199860 
	C263.739441,255.015533 261.845490,276.297424 245.116470,290.460266 
	C226.938858,305.849518 192.656204,309.794312 171.379333,298.893616 
	C159.849182,292.986420 153.023590,283.769989 151.976974,270.448029 
	C124.232399,267.307953 110.039215,248.371094 99.488548,225.337234 
	C97.487823,220.969330 95.861481,216.379028 94.554764,211.752304 
	C85.339928,179.125061 83.082909,146.228256 92.164841,113.216827 
	C103.215027,73.051048 138.518387,45.640728 180.138474,43.939766 
	C207.319107,42.828926 232.419205,48.642281 254.249222,65.419205 
	C269.588440,77.207771 279.042969,92.599220 280.556976,112.278267 
	C281.258820,121.401306 278.700806,129.962311 274.206665,137.583344 
	C269.594666,145.404282 263.706909,152.472885 258.126740,160.121246 
M168.155167,47.979279 
	C157.817490,49.505505 147.848785,52.110447 138.280045,58.047783 
	C127.007210,63.846355 117.561707,71.799667 109.705818,82.604202 
	C96.373451,100.270744 90.444000,120.643105 89.157623,142.304886 
	C88.165512,159.011581 88.670853,175.777634 91.956589,192.344757 
	C95.072556,208.055832 99.392029,223.285172 108.260391,237.633606 
	C109.145287,239.037964 109.921082,240.526855 110.932930,241.832840 
	C117.126427,249.826859 123.115784,258.060760 133.326462,262.669220 
	C142.748856,267.961365 152.570572,269.708588 163.767563,265.999817 
	C173.070831,263.166962 180.515488,257.757690 186.575073,250.158218 
	C190.168930,245.651093 194.384888,241.567566 187.987930,236.002838 
	C181.948822,246.334686 173.736328,255.113770 161.145035,260.014771 
	C158.695068,260.343170 156.154251,261.254150 153.812408,260.889038 
	C147.175751,259.854279 140.620468,258.297516 133.692902,256.345795 
	C132.109421,255.240372 130.226334,254.396545 128.993607,252.984833 
	C123.246033,246.402679 117.678116,239.663635 111.947556,232.262680 
	C104.240417,217.028595 98.991653,201.022949 97.872589,183.928665 
	C96.953590,169.890427 95.369331,155.714661 96.408310,141.773376 
	C97.832169,122.667450 103.307571,104.342491 114.559990,87.624741 
	C121.597588,77.509987 130.570282,69.473297 141.649277,62.731503 
	C150.764557,59.484146 159.879822,56.236794 169.830734,52.983364 
	C178.885895,52.654186 187.941055,52.325012 197.868301,52.002274 
	C209.010406,52.741356 219.585968,55.751785 229.935349,59.799213 
	C231.959610,60.590862 234.274765,60.638645 236.455750,61.029522 
	C236.597794,60.380779 236.739853,59.732037 236.881912,59.083294 
	C225.466843,49.334129 210.963120,48.438549 196.059967,46.000565 
	C194.226761,45.999275 192.382690,45.867676 190.562286,46.019657 
	C183.370285,46.620129 176.185699,47.309536 168.155167,47.979279 
M193.583954,302.605072 
	C209.197189,304.139374 223.694977,301.292328 236.812653,293.024384 
	C236.630051,292.125153 236.447449,291.225922 236.264847,290.326691 
	C223.066162,296.550140 209.325714,299.217255 194.152252,298.002136 
	C176.859207,296.104156 162.369522,287.232391 159.252090,269.255371 
	C157.538162,269.708069 155.848236,270.154388 153.179504,270.859253 
	C155.122589,275.908325 156.123016,280.988403 158.783051,284.955811 
	C166.833542,296.963013 179.063354,301.379700 193.583954,302.605072 
M184.294281,98.603157 
	C198.249252,115.068413 203.612579,134.791779 205.130600,155.588531 
	C211.953552,156.267288 212.901428,155.672989 211.887497,150.205582 
	C210.264206,141.452301 208.867401,132.533249 205.972961,124.169434 
	C201.949631,112.543602 195.764511,101.899384 186.711426,92.389893 
	C176.909912,81.050308 165.377823,71.833366 152.640045,63.969852 
	C148.795563,61.596519 146.146500,62.102455 143.519440,64.776718 
	C150.956375,69.837929 158.558914,74.275162 165.276138,79.790634 
	C171.981659,85.296478 177.800491,91.882202 184.294281,98.603157 
M195.250443,212.616760 
	C197.036621,203.992981 198.754349,195.354187 200.641479,186.752548 
	C201.436981,183.126648 200.920074,180.867462 197.187469,178.737381 
	C189.082214,174.111984 188.364395,163.564804 196.345123,159.789612 
	C202.956604,156.662140 202.678909,152.418045 201.996292,147.099380 
	C201.572998,143.801254 201.167404,140.481644 200.427139,137.246414 
	C192.913498,104.408752 171.592484,82.932541 142.781189,67.808029 
	C141.273132,67.016373 138.220947,67.670921 136.636353,68.750839 
	C120.129631,80.000290 109.829613,95.831291 103.980034,114.648788 
	C95.713356,141.241852 96.491249,168.204727 101.584053,195.200027 
	C104.955315,213.070038 110.955940,229.893860 122.890022,244.086823 
	C139.764572,264.155365 163.012970,264.140930 179.699509,243.985489 
	C187.155548,234.979446 191.650543,224.454559 195.250443,212.616760 
M267.228149,98.518463 
	C263.722168,89.476387 258.168152,81.863655 250.748413,75.697281 
	C228.610168,57.298656 202.891327,51.067951 174.741165,54.317284 
	C167.043823,55.205769 159.544571,57.810196 151.954407,59.627163 
	C187.624466,82.987114 212.649323,111.840691 214.297485,155.790924 
	C221.147614,157.085693 228.473801,157.030426 234.354507,159.918488 
	C243.244858,164.284622 248.201721,160.426300 253.187195,154.291534 
	C253.292145,154.162384 253.409729,154.043518 253.515076,153.914658 
	C266.639801,137.859650 275.053528,120.597488 267.228149,98.518463 
M233.113403,242.608261 
	C220.212250,245.963898 207.289536,248.820999 193.869308,244.009537 
	C186.126495,256.047791 176.038055,265.067383 162.265091,269.034851 
	C163.037781,279.598419 168.316895,287.413025 178.940628,291.633728 
	C199.102997,299.644073 218.795700,298.030670 236.950470,285.963043 
	C249.787994,277.429840 253.379761,261.917938 246.782120,247.969345 
	C243.031372,240.039566 242.012527,239.592987 233.113403,242.608261 
M256.805511,182.812744 
	C253.838379,179.919891 250.899246,176.997559 247.895065,174.143738 
	C245.579880,171.944427 243.441086,172.174973 240.339722,173.439865 
	C232.860703,176.490173 225.095078,178.952576 217.273071,180.992615 
	C213.983719,181.850494 212.596283,183.023438 212.161591,186.344452 
	C211.256210,193.261566 210.122025,200.161926 208.731552,206.997910 
	C207.729965,211.922028 206.161972,216.730927 204.933655,221.269714 
	C211.598801,222.203598 217.821487,222.484528 223.694641,224.064636 
	C229.561600,225.643066 235.043732,228.615723 240.778091,230.753067 
	C241.953461,231.191162 243.803741,231.116714 244.828308,230.466995 
	C260.973877,220.228577 269.386963,200.707809 256.805511,182.812744 
M198.702301,235.468750 
	C196.188721,239.446213 198.858337,240.711456 201.976059,240.870972 
	C213.191422,241.444794 224.086288,239.741974 235.471863,235.401962 
	C227.419250,230.427216 219.383301,228.347305 210.832947,227.853043 
	C202.575577,227.375732 202.576233,227.364410 198.702301,235.468750 
M199.806366,204.181686 
	C197.719086,211.256744 195.631805,218.331818 193.142563,226.769363 
	C196.889267,224.435699 201.549255,223.195053 202.193100,220.851181 
	C205.378799,209.254242 207.547531,197.374832 209.964584,185.572449 
	C210.458511,183.160629 209.352509,181.899811 206.647964,181.946869 
	C204.253799,181.988525 203.209564,182.568573 202.900940,185.265305 
	C202.207108,191.328033 200.973068,197.328949 199.806366,204.181686 
M216.439850,163.022202 
	C215.598923,163.547531 214.099564,163.994934 214.026627,164.611160 
	C213.628036,167.978836 213.579971,171.388000 213.341293,176.195282 
	C221.266968,173.599503 228.241470,171.315247 235.215958,169.030991 
	C235.138809,168.327271 235.061661,167.623566 234.984497,166.919861 
	C229.094986,165.647629 223.205460,164.375381 216.439850,163.022202 
M204.000153,167.888306 
	C203.990662,176.902023 204.006897,176.920319 210.550262,175.223877 
	C210.930267,173.314880 211.460220,171.407074 211.653931,169.465714 
	C211.844955,167.551163 211.695633,165.602646 211.695633,163.472702 
	C209.588226,163.071869 207.685410,162.709946 205.448044,162.284393 
	C204.955017,163.918518 204.487656,165.467636 204.000153,167.888306 
M197.785400,174.291794 
	C194.391830,169.019333 195.099701,166.104630 201.713501,159.889709 
	C196.428329,160.391052 193.539886,163.540359 193.381454,167.414444 
	C193.259903,170.386658 195.887878,173.471298 197.293045,176.505936 
	C197.613571,175.946838 197.934097,175.387726 197.785400,174.291794 
M202.430450,164.880753 
	C201.884705,164.459244 201.074127,163.555420 200.832657,163.688019 
	C196.710541,165.951538 197.062943,171.150879 201.837753,174.569748 
	C201.984451,171.433426 202.120651,168.521301 202.430450,164.880753 
M200.405655,177.482407 
	C200.405655,177.482407 200.521469,177.412659 200.405655,177.482407 
z"/>
<path fill="#FFFEFF" opacity="1.000000" stroke="none" 
	d="
M195.154922,213.008240 
	C191.650543,224.454559 187.155548,234.979446 179.699509,243.985489 
	C163.012970,264.140930 139.764572,264.155365 122.890022,244.086823 
	C110.955940,229.893860 104.955315,213.070038 101.584053,195.200027 
	C96.491249,168.204727 95.713356,141.241852 103.980034,114.648788 
	C109.829613,95.831291 120.129631,80.000290 136.636353,68.750839 
	C138.220947,67.670921 141.273132,67.016373 142.781189,67.808029 
	C171.592484,82.932541 192.913498,104.408752 200.427139,137.246414 
	C201.167404,140.481644 201.572998,143.801254 201.996292,147.099380 
	C202.678909,152.418045 202.956604,156.662140 196.345123,159.789612 
	C188.364395,163.564804 189.082214,174.111984 197.187469,178.737381 
	C200.920074,180.867462 201.436981,183.126648 200.641479,186.752548 
	C198.754349,195.354187 197.036621,203.992981 195.154922,213.008240 
z"/>
<path fill="#FEFEFF" opacity="1.000000" stroke="none" 
	d="
M267.373535,98.884201 
	C275.053528,120.597488 266.639801,137.859650 253.515076,153.914658 
	C253.409729,154.043518 253.292145,154.162384 253.187195,154.291534 
	C248.201721,160.426300 243.244858,164.284622 234.354507,159.918488 
	C228.473801,157.030426 221.147614,157.085693 214.297485,155.790924 
	C212.649323,111.840691 187.624466,82.987114 151.954407,59.627163 
	C159.544571,57.810196 167.043823,55.205769 174.741165,54.317284 
	C202.891327,51.067951 228.610168,57.298656 250.748413,75.697281 
	C258.168152,81.863655 263.722168,89.476387 267.373535,98.884201 
z"/>
<path fill="#FEFEFF" opacity="1.000000" stroke="none" 
	d="
M233.479492,242.453522 
	C242.012527,239.592987 243.031372,240.039566 246.782120,247.969345 
	C253.379761,261.917938 249.787994,277.429840 236.950470,285.963043 
	C218.795700,298.030670 199.102997,299.644073 178.940628,291.633728 
	C168.316895,287.413025 163.037781,279.598419 162.265091,269.034851 
	C176.038055,265.067383 186.126495,256.047791 193.869308,244.009537 
	C207.289536,248.820999 220.212250,245.963898 233.479492,242.453522 
z"/>
<path fill="#FEFEFF" opacity="1.000000" stroke="none" 
	d="
M257.004883,183.118561 
	C269.386963,200.707809 260.973877,220.228577 244.828308,230.466995 
	C243.803741,231.116714 241.953461,231.191162 240.778091,230.753067 
	C235.043732,228.615723 229.561600,225.643066 223.694641,224.064636 
	C217.821487,222.484528 211.598801,222.203598 204.933655,221.269714 
	C206.161972,216.730927 207.729965,211.922028 208.731552,206.997910 
	C210.122025,200.161926 211.256210,193.261566 212.161591,186.344452 
	C212.596283,183.023438 213.983719,181.850494 217.273071,180.992615 
	C225.095078,178.952576 232.860703,176.490173 240.339722,173.439865 
	C243.441086,172.174973 245.579880,171.944427 247.895065,174.143738 
	C250.899246,176.997559 253.838379,179.919891 257.004883,183.118561 
z"/>
<path fill="#5157E0" opacity="1.000000" stroke="none" 
	d="
M108.002228,236.998779 
	C99.392029,223.285172 95.072556,208.055832 91.956589,192.344757 
	C88.670853,175.777634 88.165512,159.011581 89.157623,142.304886 
	C90.444000,120.643105 96.373451,100.270744 110.253036,82.315796 
	C111.873505,84.021240 112.946754,86.015091 114.020004,88.008942 
	C103.307571,104.342491 97.832169,122.667450 96.408310,141.773376 
	C95.369331,155.714661 96.953590,169.890427 97.872589,183.928665 
	C98.991653,201.022949 104.240417,217.028595 111.720184,232.811203 
	C110.329285,234.572739 109.165756,235.785751 108.002228,236.998779 
z"/>
<path fill="#7152E9" opacity="1.000000" stroke="none" 
	d="
M187.006943,92.987862 
	C195.764511,101.899384 201.949631,112.543602 205.972961,124.169434 
	C208.867401,132.533249 210.264206,141.452301 211.887497,150.205582 
	C212.901428,155.672989 211.953552,156.267288 205.130600,155.588531 
	C203.612579,134.791779 198.249252,115.068413 184.542252,98.288727 
	C185.529129,96.312149 186.268036,94.650009 187.006943,92.987862 
z"/>
<path fill="#FBF9FE" opacity="1.000000" stroke="none" 
	d="
M198.865204,235.102402 
	C202.576233,227.364410 202.575577,227.375732 210.832947,227.853043 
	C219.383301,228.347305 227.419250,230.427216 235.471863,235.401962 
	C224.086288,239.741974 213.191422,241.444794 201.976059,240.870972 
	C198.858337,240.711456 196.188721,239.446213 198.865204,235.102402 
z"/>
<path fill="#7252E9" opacity="1.000000" stroke="none" 
	d="
M199.882629,203.768356 
	C200.973068,197.328949 202.207108,191.328033 202.900940,185.265305 
	C203.209564,182.568573 204.253799,181.988525 206.647964,181.946869 
	C209.352509,181.899811 210.458511,183.160629 209.964584,185.572449 
	C207.547531,197.374832 205.378799,209.254242 202.193100,220.851181 
	C201.549255,223.195053 196.889267,224.435699 193.142563,226.769363 
	C195.631805,218.331818 197.719086,211.256744 199.882629,203.768356 
z"/>
<path fill="#6753E6" opacity="1.000000" stroke="none" 
	d="
M186.859192,92.688873 
	C186.268036,94.650009 185.529129,96.312149 184.399139,97.984398 
	C177.800491,91.882202 171.981659,85.296478 165.276138,79.790634 
	C158.558914,74.275162 150.956375,69.837929 143.519440,64.776718 
	C146.146500,62.102455 148.795563,61.596519 152.640045,63.969852 
	C165.377823,71.833366 176.909912,81.050308 186.859192,92.688873 
z"/>
<path fill="#6853E6" opacity="1.000000" stroke="none" 
	d="
M192.992126,302.016998 
	C179.063354,301.379700 166.833542,296.963013 158.783051,284.955811 
	C156.123016,280.988403 155.122589,275.908325 153.179504,270.859253 
	C155.848236,270.154388 157.538162,269.708069 159.252090,269.255371 
	C162.369522,287.232391 176.859207,296.104156 194.546234,298.335815 
	C194.290848,299.785339 193.641479,300.901184 192.992126,302.016998 
z"/>
<path fill="#6A53E7" opacity="1.000000" stroke="none" 
	d="
M161.987686,259.988098 
	C173.736328,255.113770 181.948822,246.334686 187.987930,236.002838 
	C194.384888,241.567566 190.168930,245.651093 186.575073,250.158218 
	C180.515488,257.757690 173.070831,263.166962 163.384583,265.599915 
	C162.663651,263.462708 162.325668,261.725403 161.987686,259.988098 
z"/>
<path fill="#5955E2" opacity="1.000000" stroke="none" 
	d="
M114.289993,87.816841 
	C112.946754,86.015091 111.873505,84.021240 110.414032,82.017242 
	C117.561707,71.799667 127.007210,63.846355 138.768616,58.318562 
	C139.838531,60.060417 140.419876,61.531494 141.001221,63.002571 
	C130.570282,69.473297 121.597588,77.509987 114.289993,87.816841 
z"/>
<path fill="#7551EA" opacity="1.000000" stroke="none" 
	d="
M196.996262,46.004059 
	C210.963120,48.438549 225.466843,49.334129 236.881912,59.083294 
	C236.739853,59.732037 236.597794,60.380779 236.455750,61.029522 
	C234.274765,60.638645 231.959610,60.590862 229.935349,59.799213 
	C219.585968,55.751785 209.010406,52.741356 197.466385,51.653652 
	C197.041733,49.538040 197.018997,47.771049 196.996262,46.004059 
z"/>
<path fill="#5856E2" opacity="1.000000" stroke="none" 
	d="
M108.131310,237.316193 
	C109.165756,235.785751 110.329285,234.572739 111.769379,233.170212 
	C117.678116,239.663635 123.246033,246.402679 128.993607,252.984833 
	C130.226334,254.396545 132.109421,255.240372 133.850983,257.027649 
	C133.666916,259.157928 133.324738,260.606384 132.982574,262.054810 
	C123.115784,258.060760 117.126427,249.826859 110.932930,241.832840 
	C109.921082,240.526855 109.145287,239.037964 108.131310,237.316193 
z"/>
<path fill="#6054E4" opacity="1.000000" stroke="none" 
	d="
M133.154510,262.362000 
	C133.324738,260.606384 133.666916,259.157928 134.021118,257.327881 
	C140.620468,258.297516 147.175751,259.854279 153.812408,260.889038 
	C156.154251,261.254150 158.695068,260.343170 161.566360,260.001434 
	C162.325668,261.725403 162.663651,263.462708 163.003540,265.606201 
	C152.570572,269.708588 142.748856,267.961365 133.154510,262.362000 
z"/>
<path fill="#7651EA" opacity="1.000000" stroke="none" 
	d="
M193.288040,302.311035 
	C193.641479,300.901184 194.290848,299.785339 194.967239,298.337189 
	C209.325714,299.217255 223.066162,296.550140 236.264847,290.326691 
	C236.447449,291.225922 236.630051,292.125153 236.812653,293.024384 
	C223.694977,301.292328 209.197189,304.139374 193.288040,302.311035 
z"/>
<path fill="#F9F7FE" opacity="1.000000" stroke="none" 
	d="
M216.877899,163.062683 
	C223.205460,164.375381 229.094986,165.647629 234.984497,166.919861 
	C235.061661,167.623566 235.138809,168.327271 235.215958,169.030991 
	C228.241470,171.315247 221.266968,173.599503 213.341293,176.195282 
	C213.579971,171.388000 213.628036,167.978836 214.026627,164.611160 
	C214.099564,163.994934 215.598923,163.547531 216.877899,163.062683 
z"/>
<path fill="#6354E5" opacity="1.000000" stroke="none" 
	d="
M141.325256,62.867035 
	C140.419876,61.531494 139.838531,60.060417 139.122833,58.272598 
	C147.848785,52.110447 157.817490,49.505505 168.577148,48.392662 
	C168.997772,50.200508 168.996445,51.594975 168.995117,52.989437 
	C159.879822,56.236794 150.764557,59.484146 141.325256,62.867035 
z"/>
<path fill="#6B53E7" opacity="1.000000" stroke="none" 
	d="
M169.412933,52.986401 
	C168.996445,51.594975 168.997772,50.200508 168.998749,48.386002 
	C176.185699,47.309536 183.370285,46.620129 190.562286,46.019657 
	C192.382690,45.867676 194.226761,45.999275 196.528107,46.002312 
	C197.018997,47.771049 197.041733,49.538040 197.030334,51.650436 
	C187.941055,52.325012 178.885895,52.654186 169.412933,52.986401 
z"/>
<path fill="#7452E9" opacity="1.000000" stroke="none" 
	d="
M204.010223,167.452530 
	C204.487656,165.467636 204.955017,163.918518 205.448044,162.284393 
	C207.685410,162.709946 209.588226,163.071869 211.695633,163.472702 
	C211.695633,165.602646 211.844955,167.551163 211.653931,169.465714 
	C211.460220,171.407074 210.930267,173.314880 210.550262,175.223877 
	C204.006897,176.920319 203.990662,176.902023 204.010223,167.452530 
z"/>
<path fill="#7252E9" opacity="1.000000" stroke="none" 
	d="
M198.020020,174.560211 
	C197.934097,175.387726 197.613571,175.946838 197.293030,176.505936 
	C195.887878,173.471298 193.259903,170.386658 193.381454,167.414444 
	C193.539886,163.540359 196.428329,160.391052 201.713501,159.889709 
	C195.099701,166.104630 194.391830,169.019333 198.020020,174.560211 
z"/>
<path fill="#F9F6FE" opacity="1.000000" stroke="none" 
	d="
M202.343658,165.244965 
	C202.120651,168.521301 201.984451,171.433426 201.837753,174.569748 
	C197.062943,171.150879 196.710541,165.951538 200.832657,163.688019 
	C201.074127,163.555420 201.884705,164.459244 202.343658,165.244965 
z"/>
<path fill="#7252E9" opacity="1.000000" stroke="none" 
	d="
M200.463562,177.447540 
	C200.521469,177.412659 200.405655,177.482407 200.463562,177.447540 
z"/>
</svg>